<?xml version="1.0" encoding="utf-8"?>
<svg viewBox="-230 -250 460 460" xmlns="http://www.w3.org/2000/svg">
  <g transform="matrix(1, 0, 0, 1, -251.447052, -249.999985)">
    <g transform="matrix(1, 0, 0, 1, -6.040015, 14.005976)">
      <path style="fill: none; stroke: rgb(255, 255, 255); stroke-width: 20; stroke-miterlimit: 4; stroke-dasharray: none;" d="M 256.04 17.157 C 145.583 17.157 56.04 106.7 56.04 217.157 C 56.04 327.614 145.583 417.157 256.04 417.157 C 366.497 417.157 456.04 327.614 456.04 217.157 C 456.04 106.7 366.497 17.157 256.04 17.157 Z M 256.04 47.157 C 292.059 47.157 326.366 58.28 355.04 78.907 C 354.382 78.806 353.719 78.753 353.04 78.689 C 312.535 74.867 273.995 80.074 238.509 94.189 C 203.668 108.047 173.534 129.739 148.946 158.657 C 135.218 174.802 111.407 208.226 106.04 250.751 C 103.425 271.47 105.759 291.02 112.821 308.845 C 95.385 281.73 86.04 250.165 86.04 217.157 C 86.04 171.748 103.712 129.047 135.821 96.939 C 167.929 64.83 210.631 47.157 256.04 47.157 Z M 377.196 97.907 C 408.706 129.905 426.04 172.197 426.04 217.157 C 426.04 262.565 408.368 305.268 376.259 337.376 C 344.151 369.485 301.448 387.157 256.04 387.157 C 245.999 387.157 236.105 386.289 226.415 384.595 C 226.854 384.581 227.288 384.583 227.728 384.564 C 257.001 383.314 284.262 370.814 304.478 349.376 C 323.985 328.685 335.653 305.511 338.196 282.376 C 340.347 262.8 335.88 243.285 325.634 227.032 C 336.82 210.521 350.991 187.324 361.853 164.72 C 380.535 125.841 380.353 107.859 377.196 97.907 Z M 327.478 107.47 C 334.478 107.47 341.589 107.773 348.759 108.407 C 348.993 112.46 347.959 124.562 334.384 152.595 C 325.487 170.969 314.294 189.747 304.696 204.376 C 284.898 189.785 259.938 185.643 237.759 194.72 C 196.273 211.703 183.112 246.264 184.446 270.689 C 185.614 292.069 197.259 309.004 214.134 313.845 C 226.066 317.268 250.121 317.284 277.134 278.907 C 281.902 272.133 280.283 262.801 273.509 258.032 C 266.734 253.262 257.372 254.883 252.603 261.657 C 237.795 282.693 226.657 286.249 222.415 285.032 C 218.208 283.825 214.823 277.107 214.384 269.064 C 213.587 254.471 222.228 233.515 249.134 222.501 C 266.189 215.52 286.748 223.243 299.134 241.282 C 305.661 250.789 323.764 285.188 282.665 328.782 C 251.026 362.336 200.358 363.51 164.821 331.501 C 109.648 281.784 143.263 211.68 171.821 178.095 C 210.942 132.085 265.577 107.47 327.478 107.47 Z" id="path6906"/>
      <path style="stroke: none; fill: rgb(109, 185, 230);" d="M 256.04 17.157 C 145.583 17.157 56.04 106.7 56.04 217.157 C 56.04 327.614 145.583 417.157 256.04 417.157 C 366.497 417.157 456.04 327.614 456.04 217.157 C 456.04 106.7 366.497 17.157 256.04 17.157 Z M 256.04 47.157 C 292.059 47.157 326.366 58.28 355.04 78.907 C 354.382 78.806 353.719 78.753 353.04 78.689 C 312.535 74.867 273.995 80.074 238.509 94.189 C 203.668 108.047 173.534 129.739 148.946 158.657 C 135.218 174.802 111.407 208.226 106.04 250.751 C 103.425 271.47 105.759 291.02 112.821 308.845 C 95.385 281.73 86.04 250.165 86.04 217.157 C 86.04 171.748 103.712 129.047 135.821 96.939 C 167.929 64.83 210.631 47.157 256.04 47.157 Z M 377.196 97.907 C 408.706 129.905 426.04 172.197 426.04 217.157 C 426.04 262.565 408.368 305.268 376.259 337.376 C 344.151 369.485 301.448 387.157 256.04 387.157 C 245.999 387.157 236.105 386.289 226.415 384.595 C 226.854 384.581 227.288 384.583 227.728 384.564 C 257.001 383.314 284.262 370.814 304.478 349.376 C 323.985 328.685 335.653 305.511 338.196 282.376 C 340.347 262.8 335.88 243.285 325.634 227.032 C 336.82 210.521 350.991 187.324 361.853 164.72 C 380.535 125.841 380.353 107.859 377.196 97.907 Z M 327.478 107.47 C 334.478 107.47 341.589 107.773 348.759 108.407 C 348.993 112.46 347.959 124.562 334.384 152.595 C 325.487 170.969 314.294 189.747 304.696 204.376 C 284.898 189.785 259.938 185.643 237.759 194.72 C 196.273 211.703 183.112 246.264 184.446 270.689 C 185.614 292.069 197.259 309.004 214.134 313.845 C 226.066 317.268 250.121 317.284 277.134 278.907 C 281.902 272.133 280.283 262.801 273.509 258.032 C 266.734 253.262 257.372 254.883 252.603 261.657 C 237.795 282.693 226.657 286.249 222.415 285.032 C 218.208 283.825 214.823 277.107 214.384 269.064 C 213.587 254.471 222.228 233.515 249.134 222.501 C 266.189 215.52 286.748 223.243 299.134 241.282 C 305.661 250.789 323.764 285.188 282.665 328.782 C 251.026 362.336 200.358 363.51 164.821 331.501 C 109.648 281.784 143.263 211.68 171.821 178.095 C 210.942 132.085 265.577 107.47 327.478 107.47 Z" id="path6906-6"/>
    </g>
  </g>
</svg>