<?xml version="1.0" encoding="utf-8"?>
<svg viewBox="-250 -250 500 500" xmlns="http://www.w3.org/2000/svg">
  <g transform="matrix(1, 0, 0, 1, -251.447052, -249.999985)">
    <g transform="matrix(1, 0, 0, 1, -6.040015, 14.005976)">
      <path style="fill: none; stroke: rgb(255, 255, 255); stroke-width: 20; stroke-miterlimit: 4; stroke-dasharray: none;" d="M 256.04 17.157 C 145.583 17.157 56.04 106.7 56.04 217.157 C 56.04 327.614 145.583 417.157 256.04 417.157 C 366.497 417.157 456.04 327.614 456.04 217.157 C 456.04 106.7 366.497 17.157 256.04 17.157 Z M 256.04 47.157 C 292.059 47.157 326.366 58.28 355.04 78.907 C 354.382 78.806 353.719 78.753 353.04 78.689 C 312.535 74.867 273.995 80.074 238.509 94.189 C 203.668 108.047 173.534 129.739 148.946 158.657 C 135.218 174.802 111.407 208.226 106.04 250.751 C 103.425 271.47 105.759 291.02 112.821 308.845 C 95.385 281.73 86.04 250.165 86.04 217.157 C 86.04 171.748 103.712 129.047 135.821 96.939 C 167.929 64.83 210.631 47.157 256.04 47.157 Z M 377.196 97.907 C 408.706 129.905 426.04 172.197 426.04 217.157 C 426.04 262.565 408.368 305.268 376.259 337.376 C 344.151 369.485 301.448 387.157 256.04 387.157 C 245.999 387.157 236.105 386.289 226.415 384.595 C 226.854 384.581 227.288 384.583 227.728 384.564 C 257.001 383.314 284.262 370.814 304.478 349.376 C 323.985 328.685 335.653 305.511 338.196 282.376 C 340.347 262.8 335.88 243.285 325.634 227.032 C 336.82 210.521 350.991 187.324 361.853 164.72 C 380.535 125.841 380.353 107.859 377.196 97.907 Z M 327.478 107.47 C 334.478 107.47 341.589 107.773 348.759 108.407 C 348.993 112.46 347.959 124.562 334.384 152.595 C 325.487 170.969 314.294 189.747 304.696 204.376 C 284.898 189.785 259.938 185.643 237.759 194.72 C 196.273 211.703 183.112 246.264 184.446 270.689 C 185.614 292.069 197.259 309.004 214.134 313.845 C 226.066 317.268 250.121 317.284 277.134 278.907 C 281.902 272.133 280.283 262.801 273.509 258.032 C 266.734 253.262 257.372 254.883 252.603 261.657 C 237.795 282.693 226.657 286.249 222.415 285.032 C 218.208 283.825 214.823 277.107 214.384 269.064 C 213.587 254.471 222.228 233.515 249.134 222.501 C 266.189 215.52 286.748 223.243 299.134 241.282 C 305.661 250.789 323.764 285.188 282.665 328.782 C 251.026 362.336 200.358 363.51 164.821 331.501 C 109.648 281.784 143.263 211.68 171.821 178.095 C 210.942 132.085 265.577 107.47 327.478 107.47 Z" id="path6906"/>
      <path style="stroke: none; fill: rgb(109, 185, 230);" d="M 256.04 17.157 C 145.583 17.157 56.04 106.7 56.04 217.157 C 56.04 327.614 145.583 417.157 256.04 417.157 C 366.497 417.157 456.04 327.614 456.04 217.157 C 456.04 106.7 366.497 17.157 256.04 17.157 Z M 256.04 47.157 C 292.059 47.157 326.366 58.28 355.04 78.907 C 354.382 78.806 353.719 78.753 353.04 78.689 C 312.535 74.867 273.995 80.074 238.509 94.189 C 203.668 108.047 173.534 129.739 148.946 158.657 C 135.218 174.802 111.407 208.226 106.04 250.751 C 103.425 271.47 105.759 291.02 112.821 308.845 C 95.385 281.73 86.04 250.165 86.04 217.157 C 86.04 171.748 103.712 129.047 135.821 96.939 C 167.929 64.83 210.631 47.157 256.04 47.157 Z M 377.196 97.907 C 408.706 129.905 426.04 172.197 426.04 217.157 C 426.04 262.565 408.368 305.268 376.259 337.376 C 344.151 369.485 301.448 387.157 256.04 387.157 C 245.999 387.157 236.105 386.289 226.415 384.595 C 226.854 384.581 227.288 384.583 227.728 384.564 C 257.001 383.314 284.262 370.814 304.478 349.376 C 323.985 328.685 335.653 305.511 338.196 282.376 C 340.347 262.8 335.88 243.285 325.634 227.032 C 336.82 210.521 350.991 187.324 361.853 164.72 C 380.535 125.841 380.353 107.859 377.196 97.907 Z M 327.478 107.47 C 334.478 107.47 341.589 107.773 348.759 108.407 C 348.993 112.46 347.959 124.562 334.384 152.595 C 325.487 170.969 314.294 189.747 304.696 204.376 C 284.898 189.785 259.938 185.643 237.759 194.72 C 196.273 211.703 183.112 246.264 184.446 270.689 C 185.614 292.069 197.259 309.004 214.134 313.845 C 226.066 317.268 250.121 317.284 277.134 278.907 C 281.902 272.133 280.283 262.801 273.509 258.032 C 266.734 253.262 257.372 254.883 252.603 261.657 C 237.795 282.693 226.657 286.249 222.415 285.032 C 218.208 283.825 214.823 277.107 214.384 269.064 C 213.587 254.471 222.228 233.515 249.134 222.501 C 266.189 215.52 286.748 223.243 299.134 241.282 C 305.661 250.789 323.764 285.188 282.665 328.782 C 251.026 362.336 200.358 363.51 164.821 331.501 C 109.648 281.784 143.263 211.68 171.821 178.095 C 210.942 132.085 265.577 107.47 327.478 107.47 Z" id="path6906-6"/>
    </g>
    <g transform="matrix(1.035731, 0, 0, 1.035731, -0.382641, -15.710009)">
      <path fill="none" stroke="#009FE8" d="M 23.434 467.629 C 22.511 467.629 21.18 467.334 19.91 466.007 C 14.058 459.883 10.709 427.206 12.174 405.746 C 12.301 403.878 13.932 402.462 15.786 402.594 C 17.655 402.719 19.066 404.34 18.938 406.205 C 17.389 428.919 21.234 454.265 24.156 460.286 C 26.358 458.57 30.211 453.561 33.623 447.717 C 32.608 443.116 32.376 438.566 33.21 435.157 C 34.329 430.584 36.626 427.547 39.51 426.831 C 41.382 426.361 43.267 426.948 44.554 428.391 C 46.651 430.744 46.798 434.917 44.954 439.84 C 44.146 441.998 42.685 445.167 40.832 448.595 C 41.926 452.365 43.591 456.017 45.538 458.438 C 46.75 459.948 47.768 460.586 48.397 460.708 C 53.678 457.435 65.6 420.933 66.838 404.048 C 66.972 402.185 68.589 400.758 70.465 400.916 C 72.331 401.055 73.735 402.677 73.598 404.544 C 73 412.696 69.481 427.735 65.04 441.122 C 56.338 467.339 51.041 467.458 48.778 467.508 C 46.657 467.547 43.52 466.753 40.252 462.683 C 38.779 460.849 37.462 458.576 36.353 456.08 C 32.249 462.241 27.472 467.533 23.532 467.627 C 23.5 467.629 23.468 467.629 23.434 467.629 Z" style="stroke-width: 6.75851;"/>
      <path fill="none" stroke="#009FE8" d="M 102.881 467.347 C 101.622 467.347 100.446 466.861 99.571 465.97 C 97.021 463.356 97.716 458.393 99.28 449.12 C 99.928 445.273 101.075 438.465 100.683 435.811 C 91.659 437.385 87.616 446.171 85.808 453.441 C 85.101 458.886 84.523 462.97 84.286 464.153 C 83.944 465.872 82.351 467.04 80.607 466.859 C 78.863 466.675 77.549 465.194 77.573 463.443 C 77.58 462.922 77.691 457.763 79.244 451.579 C 80.613 440.927 82.401 425.466 83.263 415.534 C 83.097 415.926 82.941 416.325 82.794 416.73 C 82.152 418.494 80.211 419.398 78.448 418.76 C 76.687 418.123 75.781 416.177 76.422 414.414 C 76.467 414.289 81.08 401.787 86.839 401.787 C 87.856 401.787 88.904 402.293 89.548 403.076 C 90.679 404.455 91.426 405.367 88.203 433.753 C 88.161 434.118 88.12 434.486 88.079 434.85 C 91.284 431.777 95.467 429.533 100.928 428.928 C 102.722 428.733 104.351 429.307 105.527 430.553 C 108.561 433.76 107.671 440.126 105.966 450.244 C 105.467 453.21 104.778 457.302 104.657 459.811 C 105.591 459.274 106.349 458.619 106.591 458.378 C 107.914 457.054 110.061 457.054 111.384 458.378 C 112.709 459.703 112.709 461.848 111.384 463.172 C 111.026 463.534 107.755 466.702 103.593 467.298 C 103.351 467.33 103.115 467.347 102.881 467.347 Z" style="stroke-width: 6.75851;"/>
      <path fill="none" stroke="#009FE8" d="M 122.111 467.831 C 121.736 467.831 121.356 467.794 120.98 467.716 C 116.545 466.831 117.247 462.901 120.609 444.018 C 121.007 441.776 121.461 439.227 121.867 436.82 C 120.981 437.483 119.794 437.698 118.677 437.293 C 116.917 436.651 116.009 434.709 116.65 432.948 C 117.68 430.115 119.944 425.149 123.542 423.72 C 124.936 423.162 126.408 423.207 127.679 423.841 C 130.71 425.358 130.461 427.367 127.284 445.208 C 126.647 448.781 125.83 453.369 125.273 457.064 C 125.479 456.725 125.692 456.358 125.911 455.962 C 126.82 454.328 128.884 453.737 130.52 454.648 C 132.157 455.557 132.746 457.621 131.839 459.256 C 128.673 464.957 125.407 467.831 122.111 467.831 Z" style="stroke-width: 6.75851;"/>
      <path fill="none" stroke="#009FE8" d="M 145.602 466.877 C 145.047 466.877 142.269 466.685 141.893 462.898 C 141.546 459.412 142.569 449.548 143.749 441.187 C 141.544 441.325 139.054 441.454 136.238 441.563 C 134.352 441.667 132.794 440.178 132.721 438.305 C 132.649 436.433 134.108 434.86 135.979 434.785 C 138.845 434.676 141.92 434.502 144.806 434.282 C 146.949 421.52 148.357 421.236 150.361 420.837 C 155.923 419.736 160.916 431.398 161.856 433.752 C 162.314 434.89 162.19 436.143 161.514 437.18 C 160.859 438.19 159.955 439.579 150.682 440.601 C 149.975 445.378 149.338 450.508 148.951 454.634 C 149.775 453.109 151.641 452.441 153.264 453.137 C 154.986 453.873 155.783 455.867 155.045 457.59 C 154.013 460.001 150.061 466.877 145.602 466.877 Z M 152.456 430.29 C 152.247 431.281 152.033 432.399 151.815 433.614 C 152.682 433.507 153.468 433.398 154.15 433.286 C 153.622 432.276 153.032 431.229 152.456 430.29 Z" style="stroke-width: 6.75851;"/>
      <path fill="none" stroke="#009FE8" d="M 184.476 466.72 C 180.618 466.72 175.795 465.639 171.784 462.91 C 168.052 460.373 165.712 456.824 165.017 452.655 C 165.016 452.648 165.016 452.644 165.016 452.638 C 162.461 452.948 160.841 453.118 160.769 453.124 C 158.91 453.266 157.274 451.86 157.137 449.993 C 156.999 448.123 158.401 446.498 160.266 446.36 C 161.572 446.266 163.033 446.121 164.599 445.941 C 164.82 441.493 166.099 437.547 168.372 434.475 C 171.191 430.662 175.507 428.27 180.854 427.557 C 193.917 425.818 201.106 436.563 201.9 441.34 C 202.077 442.39 201.799 443.448 201.115 444.316 C 198.622 447.489 182.816 450.211 171.744 451.755 C 172.178 453.991 173.471 455.859 175.596 457.302 C 179.29 459.814 184.181 460.25 186.473 459.761 C 190.444 458.91 192.941 456.068 193.871 453.895 C 194.607 452.176 196.604 451.379 198.322 452.115 C 200.044 452.852 200.842 454.844 200.103 456.563 C 198.461 460.401 194.389 464.996 187.892 466.387 C 186.899 466.604 185.738 466.72 184.476 466.72 Z M 183.719 434.145 C 183.094 434.145 182.439 434.185 181.749 434.276 C 178.215 434.75 175.55 436.171 173.823 438.505 C 172.573 440.201 171.78 442.448 171.481 445.025 C 180.303 443.715 190.025 441.81 194.28 440.483 C 192.861 438.023 189.674 434.145 183.719 434.145 Z" style="stroke-width: 6.75851;"/>
      <path fill="none" stroke="#009FE8" d="M 383.989 466.72 C 380.132 466.72 375.307 465.639 371.297 462.91 C 367.564 460.373 365.228 456.824 364.531 452.65 C 364.531 452.648 364.528 452.64 364.528 452.637 C 361.974 452.946 360.355 453.117 360.282 453.123 C 358.431 453.268 356.789 451.859 356.65 449.992 C 356.512 448.122 357.915 446.497 359.782 446.359 C 361.085 446.264 362.546 446.12 364.113 445.94 C 364.337 441.491 365.617 437.546 367.888 434.474 C 370.708 430.661 375.025 428.268 380.371 427.556 C 393.42 425.813 400.622 436.562 401.416 441.338 C 401.591 442.389 401.313 443.447 400.631 444.315 C 398.136 447.488 382.332 450.21 371.259 451.754 C 371.694 453.993 372.985 455.854 375.11 457.301 C 378.807 459.813 383.698 460.249 385.992 459.759 C 389.964 458.908 392.456 456.066 393.388 453.894 C 394.126 452.175 396.121 451.378 397.844 452.114 C 399.564 452.851 400.363 454.843 399.619 456.562 C 397.977 460.4 393.908 464.995 387.41 466.386 C 386.413 466.604 385.253 466.72 383.989 466.72 Z M 383.232 434.145 C 382.608 434.145 381.951 434.185 381.266 434.276 C 377.733 434.75 375.064 436.171 373.341 438.505 C 372.085 440.201 371.294 442.448 370.997 445.025 C 379.817 443.715 389.535 441.81 393.793 440.483 C 392.377 438.023 389.187 434.145 383.232 434.145 Z" style="stroke-width: 6.75851;"/>
      <path fill="none" stroke="#009FE8" d="M 217.357 466.445 C 213.369 466.445 212.432 465.664 211.861 465.189 C 209.398 463.138 209.371 460.108 214.592 429.939 C 215.747 423.263 217.094 415.476 217.755 410.498 C 217.069 411.374 216.364 412.48 215.761 413.811 C 214.988 415.517 212.975 416.27 211.27 415.494 C 209.566 414.72 208.813 412.709 209.588 411.007 C 212.31 405.015 217.767 399.673 222.521 401.575 C 225.575 402.798 225.244 406.064 224.202 413.337 C 223.515 418.141 222.424 424.431 221.272 431.092 C 219.608 440.713 217.191 454.67 217.012 459.739 C 217.028 459.741 217.04 459.741 217.056 459.741 C 221.567 459.741 233.296 457.785 243.145 455.65 C 244.975 455.259 246.779 456.415 247.177 458.247 C 247.572 460.075 246.41 461.883 244.582 462.278 C 229.617 465.524 221.688 466.445 217.357 466.445 Z" style="stroke-width: 6.75851;"/>
      <path fill="none" stroke="#009FE8" d="M 281.45 466.402 C 279.979 466.402 278.524 465.878 277.176 464.527 C 276.484 463.838 275.916 462.48 275.453 460.701 C 274.629 461.733 273.744 462.618 272.795 463.363 C 269.832 465.683 266.309 466.548 262.333 465.937 C 256.172 464.988 250.052 459.595 251.341 447.315 C 251.648 444.403 252.084 441.471 252.507 438.637 C 252.645 437.712 252.795 436.7 252.939 435.684 C 252.343 437.397 250.49 438.338 248.744 437.802 C 246.956 437.252 245.95 435.353 246.501 433.567 C 248.214 427.989 250.308 424.678 252.899 423.439 C 254.32 422.761 255.894 422.707 257.328 423.278 C 261.409 424.91 260.632 430.142 259.212 439.638 C 258.801 442.4 258.373 445.258 258.084 448.025 C 257.76 451.102 257.625 458.355 263.364 459.236 C 265.509 459.567 267.127 459.192 268.618 458.023 C 270.29 456.717 272.262 454.03 273.91 448.575 C 273.555 442.248 273.657 435.837 273.941 432.883 C 274.447 427.55 275.535 422.166 279.711 422.544 C 284.359 422.976 283.738 429.831 283.403 433.513 C 282.839 439.701 281.954 444.975 280.737 449.36 C 281.045 453.815 281.541 457.663 282.048 459.443 C 282.696 459.15 283.994 458.372 286.466 456.348 C 287.92 455.163 290.054 455.377 291.235 456.826 C 292.426 458.274 292.209 460.41 290.764 461.596 C 288.38 463.537 284.878 466.402 281.45 466.402 Z" style="stroke-width: 6.75851;"/>
      <path fill="none" stroke="#009FE8" d="M 307.975 466.152 C 302.09 466.152 296.835 463.253 294.046 458.395 C 290.498 452.22 291.112 437.86 296.619 431.066 C 300.409 426.399 307.767 423.99 314.124 425.337 C 319.985 426.581 324.13 430.668 325.788 436.84 C 326.274 438.651 325.203 440.508 323.392 440.996 C 321.589 441.489 319.724 440.411 319.238 438.603 C 318.244 434.911 316.049 432.683 312.715 431.972 C 308.448 431.066 303.773 433.012 301.887 435.337 C 298.036 440.086 297.844 451.396 299.922 455.021 C 301.631 458.001 304.941 459.609 308.78 459.345 C 311.974 459.116 315.988 457.383 317.664 453.19 C 318.36 451.451 320.331 450.603 322.069 451.299 C 323.809 451.995 324.655 453.968 323.959 455.708 C 321.589 461.651 315.953 465.633 309.256 466.109 C 308.827 466.138 308.403 466.152 307.975 466.152 Z" style="stroke-width: 6.75851;"/>
      <path fill="none" stroke="#009FE8" d="M 330.481 467.311 C 330.218 467.311 329.941 467.284 329.653 467.226 C 325.66 466.439 326.014 461.379 326.839 455.345 C 327.433 450.996 329.419 446.151 332.367 441.627 C 333.612 431.284 334.676 418.529 334.94 411.05 C 334.806 411.286 334.664 411.536 334.518 411.796 C 333.609 413.434 331.541 414.022 329.907 413.114 C 328.272 412.206 327.684 410.141 328.588 408.503 C 330.44 405.173 334.294 398.241 339.399 400.788 C 341.519 401.852 342.803 402.495 340.697 426.994 C 340.544 428.751 340.372 430.618 340.182 432.537 C 344.135 429.055 348.677 426.426 353.418 425.371 C 359.268 424.073 361.144 426.195 361.686 428.202 C 363.295 434.11 350.087 442.276 341.217 446.143 C 347.392 455.041 352.736 458.741 359.127 458.741 C 360.997 458.741 362.518 460.256 362.518 462.131 C 362.518 464.002 360.997 465.519 359.127 465.519 C 351.147 465.519 344.479 461.624 337.639 452.727 C 337.311 454.632 336.974 456.284 336.644 457.561 C 335.251 462.888 333.811 467.311 330.481 467.311 Z" style="stroke-width: 6.75851;"/>
      <path fill="none" stroke="#009FE8" d="M 411.429 466.877 C 411.263 466.877 411.094 466.867 410.925 466.84 C 409.104 466.57 407.832 464.895 408.061 463.067 C 408.165 462.243 408.589 459.012 409.411 454.95 C 410.544 447.877 411.514 441.032 412.006 436.374 C 411.491 437.191 411.007 438.118 410.649 439.111 C 410.008 440.867 408.062 441.777 406.305 441.134 C 404.543 440.496 403.634 438.55 404.276 436.791 C 405.947 432.195 409.612 427.771 412.801 426.5 C 414.637 425.772 416.047 426.122 416.898 426.552 C 418.209 427.206 419.252 427.724 419.065 433.148 C 422.757 430.057 430.506 425.163 440.155 428.102 C 441.944 428.648 442.954 430.541 442.411 432.331 C 441.865 434.125 439.969 435.135 438.183 434.588 C 430.274 432.183 423.94 437.716 422.19 439.466 C 419.696 441.959 417.574 449.043 416.188 455.667 C 415.769 458.228 415.299 461.018 414.765 464.068 C 414.478 465.713 413.053 466.877 411.429 466.877 Z" style="stroke-width: 6.75851;"/>
      <path fill="none" stroke="#009FE8" d="M 456.448 467.733 C 450.313 467.733 444.098 464.552 442.05 455.448 C 441.638 453.62 442.787 451.805 444.615 451.394 C 446.442 450.981 448.253 452.13 448.665 453.957 C 449.848 459.203 452.983 461.527 457.996 460.847 C 463.557 460.099 467.171 456.348 467.123 455.27 C 466.627 452.437 462.924 451.508 457.333 450.417 C 451.984 449.372 445.321 448.073 444.632 441.864 C 443.81 434.496 448.286 428.5 455.766 426.953 C 463.077 425.436 472.312 428.584 475.022 437.408 C 475.575 439.198 474.569 441.097 472.779 441.647 C 470.989 442.196 469.093 441.191 468.542 439.401 C 467.009 434.408 461.53 432.683 457.145 433.591 C 455.205 433.993 450.747 435.533 451.368 441.114 C 451.51 442.371 455.797 443.208 458.631 443.763 C 464.473 444.902 472.474 446.462 473.804 454.121 C 474.859 460.204 467.594 465.876 460.145 467.362 C 458.94 467.601 457.695 467.733 456.448 467.733 Z" style="stroke-width: 6.75851;"/>
      <path fill="none" stroke="#009FE8" d="M 127.471 420.822 C 125.83 420.822 124.158 420.4 122.604 419.516 C 116.487 416.032 116.628 409.064 119.483 403.702 C 122.442 398.139 127.902 394.49 134.464 393.689 C 135.344 393.584 136.145 393.906 136.653 394.578 C 138.38 396.876 136.051 403.504 135.034 406.097 C 137.032 408.168 138.128 411.861 135.447 416.326 C 133.708 419.225 130.658 420.822 127.471 420.822 Z M 134.553 396.413 C 128.906 397.172 124.415 400.206 121.876 404.975 C 120.209 408.111 118.765 414.208 123.946 417.16 C 127.277 419.056 131.221 418.099 133.121 414.934 C 134.786 412.157 134.714 409.502 132.93 407.826 C 132.919 407.816 132.906 407.805 132.893 407.792 C 132.883 407.792 132.875 407.786 132.865 407.782 C 132.632 407.684 132.44 407.528 132.303 407.336 C 131.143 406.597 129.775 406.524 128.777 407.214 C 126.882 408.521 126.551 410.231 126.875 411.393 C 127.053 412.042 127.421 412.413 127.673 412.426 C 127.968 412.42 128.755 411.992 129.543 410.116 C 129.834 409.426 130.626 409.099 131.319 409.393 C 132.009 409.683 132.333 410.474 132.043 411.166 C 130.528 414.777 128.548 415.211 127.5 415.136 C 126.014 415.041 124.742 413.852 124.258 412.117 C 123.716 410.151 124.169 407.104 127.236 404.982 C 128.848 403.871 130.899 403.739 132.742 404.516 C 134.098 400.911 134.787 397.496 134.553 396.413 Z" style="stroke-width: 6.75851;"/>
      <path fill="#FFFFFF" d="M 23.434 467.629 C 22.511 467.629 21.18 467.334 19.91 466.007 C 14.058 459.883 10.709 427.206 12.174 405.746 C 12.301 403.878 13.932 402.462 15.786 402.594 C 17.655 402.719 19.066 404.34 18.938 406.205 C 17.389 428.919 21.234 454.265 24.156 460.286 C 26.358 458.57 30.211 453.561 33.623 447.717 C 32.608 443.116 32.376 438.566 33.21 435.157 C 34.329 430.584 36.626 427.547 39.51 426.831 C 41.382 426.361 43.267 426.948 44.554 428.391 C 46.651 430.744 46.798 434.917 44.954 439.84 C 44.146 441.998 42.685 445.167 40.832 448.595 C 41.926 452.365 43.591 456.017 45.538 458.438 C 46.75 459.948 47.768 460.586 48.397 460.708 C 53.678 457.435 65.6 420.933 66.838 404.048 C 66.972 402.185 68.589 400.758 70.465 400.916 C 72.331 401.055 73.735 402.677 73.598 404.544 C 73 412.696 69.481 427.735 65.04 441.122 C 56.338 467.339 51.041 467.458 48.778 467.508 C 46.657 467.547 43.52 466.753 40.252 462.683 C 38.779 460.849 37.462 458.576 36.353 456.08 C 32.249 462.241 27.472 467.533 23.532 467.627 C 23.5 467.629 23.468 467.629 23.434 467.629 Z"/>
      <path fill="#FFFFFF" d="M 102.881 467.347 C 101.622 467.347 100.446 466.861 99.571 465.97 C 97.021 463.356 97.716 458.393 99.28 449.12 C 99.928 445.273 101.075 438.465 100.683 435.811 C 91.659 437.385 87.616 446.171 85.808 453.441 C 85.101 458.886 84.523 462.97 84.286 464.153 C 83.944 465.872 82.351 467.04 80.607 466.859 C 78.863 466.675 77.549 465.194 77.573 463.443 C 77.58 462.922 77.691 457.763 79.244 451.579 C 80.613 440.927 82.401 425.466 83.263 415.534 C 83.097 415.926 82.941 416.325 82.794 416.73 C 82.152 418.494 80.211 419.398 78.448 418.76 C 76.687 418.123 75.781 416.177 76.422 414.414 C 76.467 414.289 81.08 401.787 86.839 401.787 C 87.856 401.787 88.904 402.293 89.548 403.076 C 90.679 404.455 91.426 405.367 88.203 433.753 C 88.161 434.118 88.12 434.486 88.079 434.85 C 91.284 431.777 95.467 429.533 100.928 428.928 C 102.722 428.733 104.351 429.307 105.527 430.553 C 108.561 433.76 107.671 440.126 105.966 450.244 C 105.467 453.21 104.778 457.302 104.657 459.811 C 105.591 459.274 106.349 458.619 106.591 458.378 C 107.914 457.054 110.061 457.054 111.384 458.378 C 112.709 459.703 112.709 461.848 111.384 463.172 C 111.026 463.534 107.755 466.702 103.593 467.298 C 103.351 467.33 103.115 467.347 102.881 467.347 Z"/>
      <path fill="#FFFFFF" d="M 122.111 467.831 C 121.736 467.831 121.356 467.794 120.98 467.716 C 116.545 466.831 117.247 462.901 120.609 444.018 C 121.007 441.776 121.461 439.227 121.867 436.82 C 120.981 437.483 119.794 437.698 118.677 437.293 C 116.917 436.651 116.009 434.709 116.65 432.948 C 117.68 430.115 119.944 425.149 123.542 423.72 C 124.936 423.162 126.408 423.207 127.679 423.841 C 130.71 425.358 130.461 427.367 127.284 445.208 C 126.647 448.781 125.83 453.369 125.273 457.064 C 125.479 456.725 125.692 456.358 125.911 455.962 C 126.82 454.328 128.884 453.737 130.52 454.648 C 132.157 455.557 132.746 457.621 131.839 459.256 C 128.673 464.957 125.407 467.831 122.111 467.831 Z"/>
      <path fill="#FFFFFF" d="M 145.602 466.877 C 145.047 466.877 142.269 466.685 141.893 462.898 C 141.546 459.412 142.569 449.548 143.749 441.187 C 141.544 441.325 139.054 441.454 136.238 441.563 C 134.352 441.667 132.794 440.178 132.721 438.305 C 132.649 436.433 134.108 434.86 135.979 434.785 C 138.845 434.676 141.92 434.502 144.806 434.282 C 146.949 421.52 148.357 421.236 150.361 420.837 C 155.923 419.736 160.916 431.398 161.856 433.752 C 162.314 434.89 162.19 436.143 161.514 437.18 C 160.859 438.19 159.955 439.579 150.682 440.601 C 149.975 445.378 149.338 450.508 148.951 454.634 C 149.775 453.109 151.641 452.441 153.264 453.137 C 154.986 453.873 155.783 455.867 155.045 457.59 C 154.013 460.001 150.061 466.877 145.602 466.877 Z M 152.456 430.29 C 152.247 431.281 152.033 432.399 151.815 433.614 C 152.682 433.507 153.468 433.398 154.15 433.286 C 153.622 432.276 153.032 431.229 152.456 430.29 Z"/>
      <path fill="#FFFFFF" d="M 184.476 466.72 C 180.618 466.72 175.795 465.639 171.784 462.91 C 168.052 460.373 165.712 456.824 165.017 452.655 C 165.016 452.648 165.016 452.644 165.016 452.638 C 162.461 452.948 160.841 453.118 160.769 453.124 C 158.91 453.266 157.274 451.86 157.137 449.993 C 156.999 448.123 158.401 446.498 160.266 446.36 C 161.572 446.266 163.033 446.121 164.599 445.941 C 164.82 441.493 166.099 437.547 168.372 434.475 C 171.191 430.662 175.507 428.27 180.854 427.557 C 193.917 425.818 201.106 436.563 201.9 441.34 C 202.077 442.39 201.799 443.448 201.115 444.316 C 198.622 447.489 182.816 450.211 171.744 451.755 C 172.178 453.991 173.471 455.859 175.596 457.302 C 179.29 459.814 184.181 460.25 186.473 459.761 C 190.444 458.91 192.941 456.068 193.871 453.895 C 194.607 452.176 196.604 451.379 198.322 452.115 C 200.044 452.852 200.842 454.844 200.103 456.563 C 198.461 460.401 194.389 464.996 187.892 466.387 C 186.899 466.604 185.738 466.72 184.476 466.72 Z M 183.719 434.145 C 183.094 434.145 182.439 434.185 181.749 434.276 C 178.215 434.75 175.55 436.171 173.823 438.505 C 172.573 440.201 171.78 442.448 171.481 445.025 C 180.303 443.715 190.025 441.81 194.28 440.483 C 192.861 438.023 189.674 434.145 183.719 434.145 Z"/>
      <path fill="#FFFFFF" d="M 383.989 466.72 C 380.132 466.72 375.307 465.639 371.297 462.91 C 367.564 460.373 365.228 456.824 364.531 452.65 C 364.531 452.648 364.528 452.64 364.528 452.637 C 361.974 452.946 360.355 453.117 360.282 453.123 C 358.431 453.268 356.789 451.859 356.65 449.992 C 356.512 448.122 357.915 446.497 359.782 446.359 C 361.085 446.264 362.546 446.12 364.113 445.94 C 364.337 441.491 365.617 437.546 367.888 434.474 C 370.708 430.661 375.025 428.268 380.371 427.556 C 393.42 425.813 400.622 436.562 401.416 441.338 C 401.591 442.389 401.313 443.447 400.631 444.315 C 398.136 447.488 382.332 450.21 371.259 451.754 C 371.694 453.993 372.985 455.854 375.11 457.301 C 378.807 459.813 383.698 460.249 385.992 459.759 C 389.964 458.908 392.456 456.066 393.388 453.894 C 394.126 452.175 396.121 451.378 397.844 452.114 C 399.564 452.851 400.363 454.843 399.619 456.562 C 397.977 460.4 393.908 464.995 387.41 466.386 C 386.413 466.604 385.253 466.72 383.989 466.72 Z M 383.232 434.145 C 382.608 434.145 381.951 434.185 381.266 434.276 C 377.733 434.75 375.064 436.171 373.341 438.505 C 372.085 440.201 371.294 442.448 370.997 445.025 C 379.817 443.715 389.535 441.81 393.793 440.483 C 392.377 438.023 389.187 434.145 383.232 434.145 Z"/>
      <path fill="#FFFFFF" d="M 217.357 466.445 C 213.369 466.445 212.432 465.664 211.861 465.189 C 209.398 463.138 209.371 460.108 214.592 429.939 C 215.747 423.263 217.094 415.476 217.755 410.498 C 217.069 411.374 216.364 412.48 215.761 413.811 C 214.988 415.517 212.975 416.27 211.27 415.494 C 209.566 414.72 208.813 412.709 209.588 411.007 C 212.31 405.015 217.767 399.673 222.521 401.575 C 225.575 402.798 225.244 406.064 224.202 413.337 C 223.515 418.141 222.424 424.431 221.272 431.092 C 219.608 440.713 217.191 454.67 217.012 459.739 C 217.028 459.741 217.04 459.741 217.056 459.741 C 221.567 459.741 233.296 457.785 243.145 455.65 C 244.975 455.259 246.779 456.415 247.177 458.247 C 247.572 460.075 246.41 461.883 244.582 462.278 C 229.617 465.524 221.688 466.445 217.357 466.445 Z"/>
      <path fill="#FFFFFF" d="M 281.45 466.402 C 279.979 466.402 278.524 465.878 277.176 464.527 C 276.484 463.838 275.916 462.48 275.453 460.701 C 274.629 461.733 273.744 462.618 272.795 463.363 C 269.832 465.683 266.309 466.548 262.333 465.937 C 256.172 464.988 250.052 459.595 251.341 447.315 C 251.648 444.403 252.084 441.471 252.507 438.637 C 252.645 437.712 252.795 436.7 252.939 435.684 C 252.343 437.397 250.49 438.338 248.744 437.802 C 246.956 437.252 245.95 435.353 246.501 433.567 C 248.214 427.989 250.308 424.678 252.899 423.439 C 254.32 422.761 255.894 422.707 257.328 423.278 C 261.409 424.91 260.632 430.142 259.212 439.638 C 258.801 442.4 258.373 445.258 258.084 448.025 C 257.76 451.102 257.625 458.355 263.364 459.236 C 265.509 459.567 267.127 459.192 268.618 458.023 C 270.29 456.717 272.262 454.03 273.91 448.575 C 273.555 442.248 273.657 435.837 273.941 432.883 C 274.447 427.55 275.535 422.166 279.711 422.544 C 284.359 422.976 283.738 429.831 283.403 433.513 C 282.839 439.701 281.954 444.975 280.737 449.36 C 281.045 453.815 281.541 457.663 282.048 459.443 C 282.696 459.15 283.994 458.372 286.466 456.348 C 287.92 455.163 290.054 455.377 291.235 456.826 C 292.426 458.274 292.209 460.41 290.764 461.596 C 288.38 463.537 284.878 466.402 281.45 466.402 Z"/>
      <path fill="#FFFFFF" d="M 307.975 466.152 C 302.09 466.152 296.835 463.253 294.046 458.395 C 290.498 452.22 291.112 437.86 296.619 431.066 C 300.409 426.399 307.767 423.99 314.124 425.337 C 319.985 426.581 324.13 430.668 325.788 436.84 C 326.274 438.651 325.203 440.508 323.392 440.996 C 321.589 441.489 319.724 440.411 319.238 438.603 C 318.244 434.911 316.049 432.683 312.715 431.972 C 308.448 431.066 303.773 433.012 301.887 435.337 C 298.036 440.086 297.844 451.396 299.922 455.021 C 301.631 458.001 304.941 459.609 308.78 459.345 C 311.974 459.116 315.988 457.383 317.664 453.19 C 318.36 451.451 320.331 450.603 322.069 451.299 C 323.809 451.995 324.655 453.968 323.959 455.708 C 321.589 461.651 315.953 465.633 309.256 466.109 C 308.827 466.138 308.403 466.152 307.975 466.152 Z"/>
      <path fill="#FFFFFF" d="M 330.481 467.311 C 330.218 467.311 329.941 467.284 329.653 467.226 C 325.66 466.439 326.014 461.379 326.839 455.345 C 327.433 450.996 329.419 446.151 332.367 441.627 C 333.612 431.284 334.676 418.529 334.94 411.05 C 334.806 411.286 334.664 411.536 334.518 411.796 C 333.609 413.434 331.541 414.022 329.907 413.114 C 328.272 412.206 327.684 410.141 328.588 408.503 C 330.44 405.173 334.294 398.241 339.399 400.788 C 341.519 401.852 342.803 402.495 340.697 426.994 C 340.544 428.751 340.372 430.618 340.182 432.537 C 344.135 429.055 348.677 426.426 353.418 425.371 C 359.268 424.073 361.144 426.195 361.686 428.202 C 363.295 434.11 350.087 442.276 341.217 446.143 C 347.392 455.041 352.736 458.741 359.127 458.741 C 360.997 458.741 362.518 460.256 362.518 462.131 C 362.518 464.002 360.997 465.519 359.127 465.519 C 351.147 465.519 344.479 461.624 337.639 452.727 C 337.311 454.632 336.974 456.284 336.644 457.561 C 335.251 462.888 333.811 467.311 330.481 467.311 Z"/>
      <path fill="#FFFFFF" d="M 411.429 466.877 C 411.263 466.877 411.094 466.867 410.925 466.84 C 409.104 466.57 407.832 464.895 408.061 463.067 C 408.165 462.243 408.589 459.012 409.411 454.95 C 410.544 447.877 411.514 441.032 412.006 436.374 C 411.491 437.191 411.007 438.118 410.649 439.111 C 410.008 440.867 408.062 441.777 406.305 441.134 C 404.543 440.496 403.634 438.55 404.276 436.791 C 405.947 432.195 409.612 427.771 412.801 426.5 C 414.637 425.772 416.047 426.122 416.898 426.552 C 418.209 427.206 419.252 427.724 419.065 433.148 C 422.757 430.057 430.506 425.163 440.155 428.102 C 441.944 428.648 442.954 430.541 442.411 432.331 C 441.865 434.125 439.969 435.135 438.183 434.588 C 430.274 432.183 423.94 437.716 422.19 439.466 C 419.696 441.959 417.574 449.043 416.188 455.667 C 415.769 458.228 415.299 461.018 414.765 464.068 C 414.478 465.713 413.053 466.877 411.429 466.877 Z"/>
      <path fill="#FFFFFF" d="M 456.448 467.733 C 450.313 467.733 444.098 464.552 442.05 455.448 C 441.638 453.62 442.787 451.805 444.615 451.394 C 446.442 450.981 448.253 452.13 448.665 453.957 C 449.848 459.203 452.983 461.527 457.996 460.847 C 463.557 460.099 467.171 456.348 467.123 455.27 C 466.627 452.437 462.924 451.508 457.333 450.417 C 451.984 449.372 445.321 448.073 444.632 441.864 C 443.81 434.496 448.286 428.5 455.766 426.953 C 463.077 425.436 472.312 428.584 475.022 437.408 C 475.575 439.198 474.569 441.097 472.779 441.647 C 470.989 442.196 469.093 441.191 468.542 439.401 C 467.009 434.408 461.53 432.683 457.145 433.591 C 455.205 433.993 450.747 435.533 451.368 441.114 C 451.51 442.371 455.797 443.208 458.631 443.763 C 464.473 444.902 472.474 446.462 473.804 454.121 C 474.859 460.204 467.594 465.876 460.145 467.362 C 458.94 467.601 457.695 467.733 456.448 467.733 Z"/>
      <path fill="#FFFFFF" d="M 127.471 420.822 C 125.83 420.822 124.158 420.4 122.604 419.516 C 116.487 416.032 116.628 409.064 119.483 403.702 C 122.442 398.139 127.902 394.49 134.464 393.689 C 135.344 393.584 136.145 393.906 136.653 394.578 C 138.38 396.876 136.051 403.504 135.034 406.097 C 137.032 408.168 138.128 411.861 135.447 416.326 C 133.708 419.225 130.658 420.822 127.471 420.822 Z M 134.553 396.413 C 128.906 397.172 124.415 400.206 121.876 404.975 C 120.209 408.111 118.765 414.208 123.946 417.16 C 127.277 419.056 131.221 418.099 133.121 414.934 C 134.786 412.157 134.714 409.502 132.93 407.826 C 132.919 407.816 132.906 407.805 132.893 407.792 C 132.883 407.792 132.875 407.786 132.865 407.782 C 132.632 407.684 132.44 407.528 132.303 407.336 C 131.143 406.597 129.775 406.524 128.777 407.214 C 126.882 408.521 126.551 410.231 126.875 411.393 C 127.053 412.042 127.421 412.413 127.673 412.426 C 127.968 412.42 128.755 411.992 129.543 410.116 C 129.834 409.426 130.626 409.099 131.319 409.393 C 132.009 409.683 132.333 410.474 132.043 411.166 C 130.528 414.777 128.548 415.211 127.5 415.136 C 126.014 415.041 124.742 413.852 124.258 412.117 C 123.716 410.151 124.169 407.104 127.236 404.982 C 128.848 403.871 130.899 403.739 132.742 404.516 C 134.098 400.911 134.787 397.496 134.553 396.413 Z"/>
    </g>
  </g>
</svg>